# Blender v2.91.0 OBJ File: ''
# www.blender.org
mtllib 3DGizmos.mtl
o Cylinder.003
v 0.037915 -0.037915 -0.037915
v -0.000000 -0.053620 -0.750000
v -0.000000 -0.053620 0.000000
v -0.037915 -0.037915 0.037915
v -0.037915 -0.037915 -0.750000
v -0.053620 0.000000 -0.750000
v 0.037915 0.037915 0.037915
v -0.053620 0.000000 0.000000
v -0.000000 0.053620 -0.053620
v -0.037915 -0.037915 0.037915
v -0.000000 0.053620 -0.053620
v -0.000000 0.750000 -0.053620
v 0.037915 0.750000 -0.037915
v 0.053620 0.053620 -0.000000
v 0.053620 0.750000 -0.000000
v 0.037915 0.750000 0.037915
v -0.000000 0.000000 0.053620
v -0.000000 0.750000 0.053620
v -0.037915 0.750000 0.037915
v -0.053620 0.750000 -0.000000
v -0.037915 0.750000 -0.037915
v -0.053620 0.000000 0.000000
v 0.037915 0.037915 -0.037915
v -0.037915 0.037915 -0.037915
v 0.750000 0.000000 -0.053620
v 0.750000 -0.037915 -0.037915
v 0.750000 -0.053620 -0.000000
v -0.037915 -0.037915 0.037915
v 0.750000 -0.037915 0.037915
v 0.750000 0.000000 0.053620
v 0.037915 0.037915 0.037915
v 0.750000 0.037915 0.037915
v 0.750000 0.053620 -0.000000
v 0.750000 0.037915 -0.037915
v 0.053620 0.053620 -0.000000
v -0.000000 0.000000 0.053620
v -0.000000 -0.053620 0.000000
v 0.037915 -0.037915 -0.037915
v 0.053620 0.000000 -0.053620
v 0.037915 0.037915 -0.037915
v 0.037915 -0.037915 -0.750000
v 0.053620 0.000000 -0.053620
v 0.053620 0.000000 -0.750000
v 0.037915 0.037915 -0.037915
v 0.037915 0.037915 -0.750000
v -0.000000 0.053620 -0.750000
v -0.037915 0.037915 -0.037915
v -0.037915 0.037915 -0.750000
v 0.000000 0.750000 -0.146725
v 0.000000 1.070941 -0.015273
v 0.103751 0.750000 -0.103751
v 0.010800 1.070941 -0.010800
v 0.146725 0.750000 0.000000
v 0.015273 1.070941 0.000000
v 0.103751 0.750000 0.103751
v 0.010800 1.070941 0.010800
v -0.000000 0.750000 0.146725
v -0.000000 1.070941 0.015273
v -0.103751 0.750000 0.103750
v -0.010800 1.070941 0.010800
v -0.146725 0.750000 -0.000000
v -0.015273 1.070941 -0.000000
v -0.103751 0.750000 -0.103750
v -0.010800 1.070941 -0.010800
v 0.000000 0.750000 -0.146725
v 0.103751 0.750000 -0.103751
v 0.146725 0.750000 0.000000
v 0.103751 0.750000 0.103751
v -0.000000 0.750000 0.146725
v -0.103751 0.750000 0.103750
v -0.146725 0.750000 -0.000000
v -0.103751 0.750000 -0.103750
v 0.000000 1.070941 -0.015273
v 0.010800 1.070941 -0.010800
v 0.015273 1.070941 0.000000
v 0.010800 1.070941 0.010800
v -0.000000 1.070941 0.015273
v -0.010800 1.070941 0.010800
v -0.015273 1.070941 -0.000000
v -0.010800 1.070941 -0.010800
v 0.750000 -0.000000 -0.146725
v 1.070941 0.000000 -0.015273
v 0.750000 -0.103751 -0.103751
v 1.070941 -0.010800 -0.010800
v 0.750000 -0.146725 0.000000
v 1.070941 -0.015273 0.000000
v 0.750000 -0.103751 0.103751
v 1.070941 -0.010800 0.010800
v 0.750000 -0.000000 0.146725
v 1.070941 0.000000 0.015273
v 0.750000 0.103751 0.103750
v 1.070941 0.010800 0.010800
v 0.750000 0.146725 -0.000000
v 1.070941 0.015273 -0.000000
v 0.750000 0.103751 -0.103750
v 1.070941 0.010800 -0.010800
v 0.750000 -0.000000 -0.146725
v 0.750000 -0.103751 -0.103751
v 0.750000 -0.146725 0.000000
v 0.750000 -0.103751 0.103751
v 0.750000 -0.000000 0.146725
v 0.750000 0.103751 0.103750
v 0.750000 0.146725 -0.000000
v 0.750000 0.103751 -0.103750
v 1.070941 0.000000 -0.015273
v 1.070941 -0.010800 -0.010800
v 1.070941 -0.015273 0.000000
v 1.070941 -0.010800 0.010800
v 1.070941 0.000000 0.015273
v 1.070941 0.010800 0.010800
v 1.070941 0.015273 -0.000000
v 1.070941 0.010800 -0.010800
v -0.146725 -0.000000 -0.750000
v -0.015273 -0.000000 -1.070941
v -0.103751 -0.103751 -0.750000
v -0.010800 -0.010800 -1.070941
v 0.000000 -0.146725 -0.750000
v -0.000000 -0.015273 -1.070941
v 0.103751 -0.103751 -0.750000
v 0.010800 -0.010800 -1.070941
v 0.146725 0.000000 -0.750000
v 0.015273 0.000000 -1.070941
v 0.103750 0.103751 -0.750000
v 0.010800 0.010800 -1.070941
v -0.000000 0.146725 -0.750000
v -0.000000 0.015273 -1.070941
v -0.103750 0.103751 -0.750000
v -0.010800 0.010800 -1.070941
v -0.146725 -0.000000 -0.750000
v -0.103751 -0.103751 -0.750000
v 0.000000 -0.146725 -0.750000
v 0.103751 -0.103751 -0.750000
v 0.146725 0.000000 -0.750000
v 0.103750 0.103751 -0.750000
v -0.000000 0.146725 -0.750000
v -0.103750 0.103751 -0.750000
v -0.015273 -0.000000 -1.070941
v -0.010800 -0.010800 -1.070941
v -0.000000 -0.015273 -1.070941
v 0.010800 -0.010800 -1.070941
v 0.015273 0.000000 -1.070941
v 0.010800 0.010800 -1.070941
v -0.000000 0.015273 -1.070941
v -0.010800 0.010800 -1.070941
vt 0.125000 0.500000
vt 0.000000 1.000000
vt 0.000000 0.500000
vt 0.250000 0.500000
vt 0.125000 1.000000
vt 0.375000 1.000000
vt 0.375000 0.500000
vt 0.500000 0.500000
vt 0.625000 1.000000
vt 0.625000 0.500000
vt 0.750000 1.000000
vt 0.750000 0.500000
vt 0.875000 1.000000
vt 0.875000 0.500000
vt 1.000000 0.500000
vt 1.000000 0.500000
vt 0.875000 1.000000
vt 0.875000 0.500000
vt 0.750000 0.500000
vt 0.625000 1.000000
vt 0.625000 0.500000
vt 0.500000 1.000000
vt 0.500000 0.500000
vt 0.375000 1.000000
vt 0.375000 0.500000
vt 0.250000 0.500000
vt 0.250000 1.000000
vt 0.125000 0.500000
vt 0.125000 1.000000
vt 0.000000 0.500000
vt 1.000000 0.500000
vt 0.875000 1.000000
vt 0.875000 0.500000
vt 0.750000 1.000000
vt 0.750000 0.500000
vt 0.625000 1.000000
vt 0.625000 0.500000
vt 0.500000 0.500000
vt 0.500000 1.000000
vt 0.375000 0.500000
vt 0.375000 1.000000
vt 0.250000 0.500000
vt 0.125000 1.000000
vt 0.125000 0.500000
vt 0.000000 0.500000
vt 1.000000 1.000000
vt 0.875000 0.500000
vt 1.000000 0.500000
vt 0.750000 1.000000
vt 0.750000 0.500000
vt 0.625000 0.500000
vt 0.500000 1.000000
vt 0.500000 0.500000
vt 0.375000 0.500000
vt 0.250000 1.000000
vt 0.250000 0.500000
vt 0.125000 1.000000
vt 0.125000 0.500000
vt 0.000000 1.000000
vt 0.000000 0.500000
vt 0.919706 0.419706
vt 0.919706 0.080294
vt 0.580294 0.080294
vt 0.010000 0.250000
vt 0.250000 0.010000
vt 0.490000 0.250000
vt 1.000000 1.000000
vt 0.875000 0.500000
vt 1.000000 0.500000
vt 0.875000 1.000000
vt 0.750000 0.500000
vt 0.750000 1.000000
vt 0.625000 0.500000
vt 0.625000 1.000000
vt 0.500000 0.500000
vt 0.500000 1.000000
vt 0.375000 0.500000
vt 0.375000 1.000000
vt 0.250000 0.500000
vt 0.125000 1.000000
vt 0.125000 0.500000
vt 0.000000 0.500000
vt 0.919706 0.419706
vt 0.919706 0.080294
vt 0.580294 0.080294
vt 0.250000 0.010000
vt 0.419706 0.080294
vt 0.490000 0.250000
vt 1.000000 1.000000
vt 0.875000 0.500000
vt 1.000000 0.500000
vt 0.750000 1.000000
vt 0.750000 0.500000
vt 0.625000 0.500000
vt 0.625000 1.000000
vt 0.500000 0.500000
vt 0.375000 1.000000
vt 0.375000 0.500000
vt 0.250000 0.500000
vt 0.250000 1.000000
vt 0.125000 0.500000
vt 0.125000 1.000000
vt 0.000000 0.500000
vt 0.580294 0.080294
vt 0.510000 0.250000
vt 0.580294 0.419706
vt 0.250000 0.010000
vt 0.419706 0.080294
vt 0.490000 0.250000
vt 0.250000 1.000000
vt 0.500000 1.000000
vt 1.000000 1.000000
vt 1.000000 1.000000
vt 0.750000 1.000000
vt 0.000000 1.000000
vt 1.000000 1.000000
vt 0.250000 1.000000
vt 0.000000 1.000000
vt 0.875000 1.000000
vt 0.625000 1.000000
vt 0.375000 1.000000
vt 0.580294 0.419706
vt 0.750000 0.490000
vt 0.990000 0.250000
vt 0.750000 0.010000
vt 0.510000 0.250000
vt 0.419706 0.419706
vt 0.250000 0.490000
vt 0.080294 0.419706
vt 0.080294 0.080294
vt 0.419706 0.080294
vt 0.250000 1.000000
vt 0.000000 1.000000
vt 0.580294 0.419706
vt 0.750000 0.490000
vt 0.990000 0.250000
vt 0.750000 0.010000
vt 0.510000 0.250000
vt 0.419706 0.419706
vt 0.250000 0.490000
vt 0.080294 0.419706
vt 0.010000 0.250000
vt 0.080294 0.080294
vt 0.875000 1.000000
vt 0.500000 1.000000
vt 0.000000 1.000000
vt 0.750000 0.490000
vt 0.919706 0.419706
vt 0.990000 0.250000
vt 0.919706 0.080294
vt 0.750000 0.010000
vt 0.419706 0.419706
vt 0.250000 0.490000
vt 0.080294 0.419706
vt 0.010000 0.250000
vt 0.080294 0.080294
vn -0.7928 0.6095 0.0000
vn -1.0000 0.0000 0.0000
vn -0.9812 -0.1930 0.0000
vn 0.0000 1.0000 0.0000
vn -0.7071 0.7071 0.0000
vn 0.7071 0.7071 0.0000
vn 1.0000 0.0000 0.0000
vn 0.7071 -0.7071 0.0000
vn 0.6095 -0.7928 0.0000
vn 0.0000 -1.0000 0.0000
vn -0.1930 -0.9812 0.0000
vn -0.7071 -0.7071 0.0000
vn 0.0000 0.0000 -1.0000
vn 0.7071 0.0000 -0.7071
vn 0.7071 0.0000 0.7071
vn 0.6095 0.0000 0.7928
vn 0.0000 0.0000 1.0000
vn -0.1930 0.0000 0.9812
vn -0.7071 0.0000 0.7071
vn -0.9812 0.0000 0.1930
vn -0.7928 0.0000 -0.6095
vn -0.7071 0.0000 -0.7071
vn 0.0000 -0.7071 -0.7071
vn 0.0000 -0.7928 -0.6095
vn 0.0000 -0.9812 0.1930
vn 0.0000 -0.7071 0.7071
vn 0.0000 -0.1930 0.9812
vn 0.0000 0.6095 0.7928
vn 0.0000 0.7071 0.7071
vn 0.0000 0.7071 -0.7071
vn 0.0000 0.3790 -0.9254
vn 0.6543 0.3790 -0.6543
vn 0.9254 0.3790 0.0000
vn 0.6543 0.3790 0.6543
vn 0.0000 0.3790 0.9254
vn -0.6543 0.3790 0.6543
vn -0.9254 0.3790 0.0000
vn -0.6543 0.3790 -0.6543
vn 0.3790 0.0000 -0.9254
vn 0.3790 -0.6543 -0.6543
vn 0.3790 -0.9254 0.0000
vn 0.3790 -0.6543 0.6543
vn 0.3790 0.0000 0.9254
vn 0.3790 0.6543 0.6543
vn 0.3790 0.9254 0.0000
vn 0.3790 0.6543 -0.6543
vn -0.9254 0.0000 -0.3790
vn -0.6543 -0.6543 -0.3790
vn 0.0000 -0.9254 -0.3790
vn 0.6543 -0.6543 -0.3790
vn 0.9254 0.0000 -0.3790
vn 0.6543 0.6543 -0.3790
vn 0.0000 0.9254 -0.3790
vn -0.6543 0.6543 -0.3790
usemtl None
s 1
f 47/1/1 6/2/2 8/3/3
f 9/4/4 48/5/5 47/1/1
f 45/6/6 9/4/4 44/7/6
f 42/8/7 45/6/6 44/7/6
f 41/9/8 42/8/7 1/10/9
f 2/11/10 1/10/9 3/12/11
f 5/13/12 3/12/11 10/14/12
f 8/15/3 5/13/12 10/14/12
f 11/16/13 13/17/14 23/18/14
f 13/17/14 14/19/7 23/18/14
f 14/19/7 16/20/15 7/21/16
f 7/21/16 18/22/17 17/23/18
f 17/23/18 19/24/19 4/25/19
f 19/24/19 22/26/20 4/25/19
f 20/27/2 24/28/21 22/26/20
f 21/29/22 11/30/13 24/28/21
f 39/31/13 26/32/23 38/33/24
f 38/33/24 27/34/10 37/35/25
f 37/35/25 29/36/26 28/37/26
f 29/36/26 36/38/27 28/37/26
f 30/39/17 31/40/28 36/38/27
f 32/41/29 35/42/4 31/40/28
f 35/42/4 34/43/30 40/44/30
f 34/43/30 39/45/13 40/44/30
f 50/46/31 51/47/32 49/48/31
f 51/47/32 54/49/33 53/50/33
f 54/49/33 55/51/34 53/50/33
f 55/51/34 58/52/35 57/53/35
f 58/52/35 59/54/36 57/53/35
f 59/54/36 62/55/37 61/56/37
f 61/56/37 64/57/38 63/58/38
f 63/58/38 50/59/31 49/60/31
f 66/61/10 68/62/10 70/63/10
f 79/64/4 77/65/4 75/66/4
f 82/67/39 83/68/40 81/69/39
f 84/70/40 85/71/41 83/68/40
f 86/72/41 87/73/42 85/71/41
f 88/74/42 89/75/43 87/73/42
f 90/76/43 91/77/44 89/75/43
f 92/78/44 93/79/45 91/77/44
f 93/79/45 96/80/46 95/81/46
f 96/80/46 81/82/39 95/81/46
f 98/83/2 100/84/2 102/85/2
f 109/86/7 108/87/7 107/88/7
f 114/89/47 115/90/48 113/91/47
f 115/90/48 118/92/49 117/93/49
f 118/92/49 119/94/50 117/93/49
f 120/95/50 121/96/51 119/94/50
f 121/96/51 124/97/52 123/98/52
f 124/97/52 125/99/53 123/98/52
f 126/100/53 127/101/54 125/99/53
f 128/102/54 113/103/47 127/101/54
f 134/104/17 135/105/17 136/106/17
f 141/107/13 140/108/13 139/109/13
f 47/1/1 48/5/5 6/2/2
f 9/4/4 46/110/4 48/5/5
f 45/6/6 46/110/4 9/4/4
f 42/8/7 43/111/7 45/6/6
f 41/9/8 43/111/7 42/8/7
f 2/11/10 41/9/8 1/10/9
f 5/13/12 2/11/10 3/12/11
f 8/15/3 6/112/2 5/13/12
f 11/16/13 12/113/13 13/17/14
f 13/17/14 15/114/7 14/19/7
f 14/19/7 15/114/7 16/20/15
f 7/21/16 16/20/15 18/22/17
f 17/23/18 18/22/17 19/24/19
f 19/24/19 20/27/2 22/26/20
f 20/27/2 21/29/22 24/28/21
f 21/29/22 12/115/13 11/30/13
f 39/31/13 25/116/13 26/32/23
f 38/33/24 26/32/23 27/34/10
f 37/35/25 27/34/10 29/36/26
f 29/36/26 30/39/17 36/38/27
f 30/39/17 32/41/29 31/40/28
f 32/41/29 33/117/4 35/42/4
f 35/42/4 33/117/4 34/43/30
f 34/43/30 25/118/13 39/45/13
f 50/46/31 52/119/32 51/47/32
f 51/47/32 52/119/32 54/49/33
f 54/49/33 56/120/34 55/51/34
f 55/51/34 56/120/34 58/52/35
f 58/52/35 60/121/36 59/54/36
f 59/54/36 60/121/36 62/55/37
f 61/56/37 62/55/37 64/57/38
f 63/58/38 64/57/38 50/59/31
f 72/122/10 65/123/10 66/61/10
f 66/61/10 67/124/10 68/62/10
f 68/62/10 69/125/10 70/63/10
f 70/63/10 71/126/10 72/122/10
f 72/122/10 66/61/10 70/63/10
f 75/66/4 74/127/4 73/128/4
f 73/128/4 80/129/4 79/64/4
f 79/64/4 78/130/4 77/65/4
f 77/65/4 76/131/4 75/66/4
f 75/66/4 73/128/4 79/64/4
f 82/67/39 84/70/40 83/68/40
f 84/70/40 86/72/41 85/71/41
f 86/72/41 88/74/42 87/73/42
f 88/74/42 90/76/43 89/75/43
f 90/76/43 92/78/44 91/77/44
f 92/78/44 94/132/45 93/79/45
f 93/79/45 94/132/45 96/80/46
f 96/80/46 82/133/39 81/82/39
f 104/134/2 97/135/2 98/83/2
f 98/83/2 99/136/2 100/84/2
f 100/84/2 101/137/2 102/85/2
f 102/85/2 103/138/2 104/134/2
f 104/134/2 98/83/2 102/85/2
f 107/88/7 106/139/7 105/140/7
f 105/140/7 112/141/7 107/88/7
f 112/141/7 111/142/7 107/88/7
f 111/142/7 110/143/7 107/88/7
f 110/143/7 109/86/7 107/88/7
f 114/89/47 116/144/48 115/90/48
f 115/90/48 116/144/48 118/92/49
f 118/92/49 120/95/50 119/94/50
f 120/95/50 122/145/51 121/96/51
f 121/96/51 122/145/51 124/97/52
f 124/97/52 126/100/53 125/99/53
f 126/100/53 128/102/54 127/101/54
f 128/102/54 114/146/47 113/103/47
f 136/106/17 129/147/17 130/148/17
f 130/148/17 131/149/17 136/106/17
f 131/149/17 132/150/17 136/106/17
f 132/150/17 133/151/17 136/106/17
f 133/151/17 134/104/17 136/106/17
f 139/109/13 138/152/13 137/153/13
f 137/153/13 144/154/13 139/109/13
f 144/154/13 143/155/13 139/109/13
f 143/155/13 142/156/13 139/109/13
f 142/156/13 141/107/13 139/109/13
